<svg xmlns="http://www.w3.org/2000/svg" width="410" height="404" viewBox="0 0 410 404" fill="none">
<path d="M399.641 59.5246L215.643 388.545C211.844 395.338 202.084 395.378 198.228 388.618L10.5817 59.5563C6.38087 52.1896 12.6802 43.2665 21.0281 44.7586L205.223 77.6824C206.398 77.8924 207.601 77.8904 208.776 77.6763L389.119 44.8058C397.439 43.2894 403.768 52.1434 399.63 59.5173L399.641 59.5246Z" fill="url(#paint0_linear)"/>
<path d="M292.965 1.5744L156.801 28.2552C155.563 28.4977 154.498 29.2524 153.827 30.3411L66.4609 173.36C65.1963 175.432 66.05 178.138 68.1581 179.257L200.48 248.605C202.129 249.475 204.123 249.237 205.52 248.006L307.8 156.822C309.888 154.987 312.988 156.989 312.308 159.627L287.433 257.083C286.981 258.839 287.651 260.683 289.109 261.648L351.51 302.468C353.561 303.836 356.352 302.479 356.824 300.016L409.36 24.1641C409.986 20.9932 407.274 18.1928 404.117 18.8016L294.228 39.6298C293.394 39.7884 292.621 40.2294 292.068 40.8878L199.38 135.607C197.535 137.792 194.11 135.733 194.892 133.012L301.125 10.6758C302.718 8.32808 300.7 5.26622 297.978 5.80122V5.80122C296.129 6.161 294.258 6.40853 292.383 6.5416L298.775 5.88929C297.279 6.02942 295.777 6.04256 294.279 5.9286L298.745 6.28482C297.35 6.39238 295.951 6.37966 294.559 6.24665L298.595 6.63309C297.35 6.7543 296.102 6.74735 294.858 6.61249L298.453 7.01615C296.373 7.23801 294.281 7.12951 292.232 6.69425L296.355 7.56282C293.321 8.22062 290.199 8.32397 287.109 7.86879L291.459 8.50246C287.207 9.10952 282.787 8.79904 278.669 7.30902L282.522 8.70308C277.189 6.85112 272.257 3.64928 267.559 0.681358L269.51 1.8988C265.922 -0.312716 261.189 -0.625593 257.312 1.29898L257.248 1.33002L292.977 1.57352L292.965 1.5744Z" fill="url(#paint1_linear)"/>
<defs>
<linearGradient id="paint0_linear" x1="6.00017" y1="32.9999" x2="235" y2="344" gradientUnits="userSpaceOnUse">
<stop stop-color="#41D1FF"/>
<stop offset="1" stop-color="#BD34FE"/>
</linearGradient>
<linearGradient id="paint1_linear" x1="194.651" y1="8.81818" x2="236.076" y2="292.989" gradientUnits="userSpaceOnUse">
<stop stop-color="#FFEA83"/>
<stop offset="0.0833333" stop-color="#FFDD35"/>
<stop offset="1" stop-color="#FFA800"/>
</linearGradient>
</defs>
</svg>
